<svg version="1.1" id="Layer_1" xmlns="http://www.w3.org/2000/svg" xmlns:xlink="http://www.w3.org/1999/xlink" x="0px" y="0px"
	 width="100%" viewBox="0 0 350 350" enable-background="new 0 0 350 350" xml:space="preserve">
<path fill="#4E80F3" opacity="1.000000" stroke="none" 
	d="
M89.000000,351.000000 
	C59.676334,351.000000 30.352671,351.000000 1.021755,351.000000 
	C1.014503,234.381454 1.014503,117.762917 1.014503,1.072185 
	C117.580048,1.072185 234.160156,1.072185 350.870117,1.072185 
	C350.870117,117.666580 350.870117,234.333267 350.872681,350.999969 
	C288.229279,351.000000 225.583298,351.000000 162.468842,350.531342 
	C162.000778,343.233612 161.989349,336.404541 162.004990,329.575500 
	C162.019501,323.237000 163.191513,322.019653 169.404160,322.006195 
	C180.397232,321.982391 191.390381,322.000366 202.383499,322.000671 
	C208.150803,322.000854 213.918121,322.000732 220.019775,322.000732 
	C220.019775,316.958588 220.019775,312.489502 220.485565,308.009003 
	C225.536880,307.997559 230.122391,307.997559 235.184937,307.997559 
	C235.184937,302.677155 235.184937,297.958252 235.184937,292.817566 
	C254.685104,292.817566 273.691345,292.817566 293.001678,292.817566 
	C293.001678,287.923187 293.001678,283.465515 293.466736,279.003784 
	C295.094635,279.001038 296.257477,279.003967 297.420349,279.003510 
	C308.921143,278.999054 309.022736,278.988556 307.857971,267.549377 
	C307.727264,266.265778 305.749603,264.325836 304.447052,264.165680 
	C300.682526,263.702820 296.825378,263.993561 293.001770,263.521912 
	C292.998993,258.461151 292.998993,253.866898 292.998993,248.794403 
	C277.981934,248.794403 263.596802,248.794403 249.351379,248.794403 
	C249.351379,214.597916 249.351379,180.897079 249.351379,146.988281 
	C255.514374,146.988281 261.331055,146.876404 267.140900,147.027328 
	C271.061493,147.129181 274.972504,147.601639 278.923462,148.380127 
	C278.975067,150.183060 279.004791,151.514206 279.004822,152.845337 
	C279.005859,178.473022 279.086517,204.101242 278.918121,229.727829 
	C278.890747,233.900009 280.202789,235.571213 284.316833,235.019302 
	C285.297668,234.887711 286.331390,234.869797 287.306244,235.021484 
	C292.063141,235.761627 293.124359,233.535858 293.087158,229.104340 
	C292.895813,206.307297 292.998657,183.507782 292.998718,160.709137 
	C292.998749,146.962433 292.998718,146.962433 279.084045,146.545380 
	C279.005157,138.091415 278.917633,130.100388 279.036865,122.112427 
	C279.081146,119.148109 278.086853,117.835289 275.002930,117.971283 
	C271.348572,118.132431 267.680878,117.991119 264.007111,117.518471 
	C263.995697,114.237068 263.829773,111.405663 264.039246,108.602318 
	C264.294006,105.192947 263.087891,103.712433 259.533051,103.949944 
	C256.126923,104.177528 252.693649,103.999092 248.820953,103.999092 
	C248.820953,98.670128 248.820953,93.952080 248.820953,89.028709 
	C243.885147,89.028709 239.426987,89.028709 234.981110,88.559502 
	C234.993362,83.492584 234.993362,78.894875 234.993362,74.024551 
	C229.587280,74.024551 224.781998,74.024551 219.986740,73.559235 
	C219.997498,70.763367 219.759262,68.402672 220.048752,66.108551 
	C220.649612,61.346909 218.913376,59.857155 214.014542,59.892136 
	C183.718918,60.108486 153.421005,59.997520 123.123856,60.010780 
	C121.517570,60.011486 119.911354,60.152962 117.987122,60.243938 
	C117.987122,65.052269 117.987122,69.519142 117.523399,73.999084 
	C113.620865,74.009552 110.137978,73.690918 106.765106,74.161263 
	C105.432350,74.347115 103.385315,76.239357 103.322472,77.441360 
	C103.122482,81.266373 103.702652,85.132179 103.515366,88.989090 
	C98.453979,88.995964 93.858604,88.995964 88.787018,88.995964 
	C88.787018,118.356979 88.787018,147.074478 88.787018,176.289200 
	C83.567642,176.289200 78.838539,176.289200 74.279068,176.289200 
	C74.279068,191.061066 74.279068,205.326859 74.279068,220.113525 
	C79.274033,220.113525 84.011086,220.113525 89.000000,220.113525 
	C89.000000,264.092743 89.000000,307.546356 89.000000,351.000000 
z"/>
<path fill="#000001" opacity="1.000000" stroke="none" 
	d="
M278.887787,147.908310 
	C274.972504,147.601639 271.061493,147.129181 267.140900,147.027328 
	C261.331055,146.876404 255.514374,146.988281 249.351379,146.988281 
	C249.351379,180.897079 249.351379,214.597916 249.351379,248.794403 
	C263.596802,248.794403 277.981934,248.794403 292.998993,248.794403 
	C292.998993,253.866898 292.998993,258.461151 292.995972,263.527222 
	C292.992950,263.998993 292.982330,264.010956 292.518616,264.006653 
	C287.708282,264.056824 283.361603,264.111267 278.551147,264.087463 
	C254.082855,264.044922 230.078415,264.080597 206.054047,263.643433 
	C206.063553,258.475403 206.092987,253.780197 206.578262,249.058075 
	C211.335205,248.971832 215.636322,248.912506 220.407532,248.898773 
	C235.548752,249.191849 235.548752,249.191849 234.892975,234.473572 
	C234.957291,226.684113 234.846558,219.353912 235.049637,212.032394 
	C235.177170,207.434448 233.124039,205.814865 228.722382,205.945160 
	C222.400192,206.132324 216.066269,205.897034 209.741333,206.030487 
	C206.924927,206.089905 205.926926,205.023743 205.971817,202.238846 
	C206.089859,194.913879 205.879974,187.582565 206.060486,180.260193 
	C206.140137,177.029266 205.097839,175.901108 201.796310,175.944992 
	C189.975479,176.102097 178.149033,176.126770 166.329544,175.922318 
	C162.638168,175.858459 161.857773,177.355072 161.946060,180.638855 
	C162.129486,187.461258 161.860565,194.296005 162.054047,201.117859 
	C162.159302,204.828781 160.731430,206.197845 157.074692,206.039276 
	C152.420883,205.837463 147.751633,205.992096 143.089050,205.992294 
	C132.999557,205.992706 132.999176,205.992493 132.998138,196.113037 
	C132.997452,189.531921 132.998016,182.950806 132.998016,176.422089 
	C122.869011,176.422089 113.645775,176.422089 103.997055,176.422089 
	C103.997055,179.813705 103.825691,182.798691 104.039803,185.755768 
	C104.316467,189.576904 102.957329,191.342926 98.938835,191.038452 
	C95.843445,190.803925 92.716064,190.991699 89.317612,190.991699 
	C89.317612,196.229050 89.317612,200.785995 89.317612,206.167099 
	C94.298286,206.167099 98.987251,206.167099 104.139862,206.167099 
	C104.139862,211.303772 104.139862,215.620987 104.091461,220.409729 
	C104.081276,240.277115 104.119492,259.672974 104.110489,279.530975 
	C104.042183,303.662079 104.021088,327.331055 104.000000,351.000000 
	C99.310745,351.000000 94.621490,351.000000 89.466118,351.000000 
	C89.000000,307.546356 89.000000,264.092743 89.000000,220.113525 
	C84.011086,220.113525 79.274033,220.113525 74.279068,220.113525 
	C74.279068,205.326859 74.279068,191.061066 74.279068,176.289200 
	C78.838539,176.289200 83.567642,176.289200 88.787018,176.289200 
	C88.787018,147.074478 88.787018,118.356979 88.787018,88.995964 
	C93.858604,88.995964 98.453979,88.995964 103.522766,88.997955 
	C103.996170,88.999947 104.012779,89.015915 104.009537,89.481155 
	C104.052246,94.656311 104.098198,99.366226 104.095528,104.537704 
	C104.046906,114.212570 104.046906,123.425873 104.046906,132.987701 
	C113.159988,132.987701 121.443207,132.921494 129.724304,133.024994 
	C132.479309,133.059402 132.994171,131.700272 133.040344,129.336395 
	C133.110504,125.747040 132.164169,120.516548 134.063538,118.993446 
	C136.453003,117.077339 141.275314,118.189018 145.048645,118.010498 
	C145.710480,117.979179 146.376114,118.027863 147.024139,118.023987 
	C147.008301,118.008377 146.977158,117.976601 146.982544,118.445137 
	C146.993774,122.244530 147.119873,125.580826 146.969650,128.904633 
	C146.835526,131.872543 147.929260,133.045547 150.998627,133.039764 
	C187.304932,132.971436 223.611435,132.972122 259.917755,133.034729 
	C262.890259,133.039856 264.177734,132.074005 264.033661,129.001877 
	C263.862213,125.345863 263.989166,121.675858 263.994751,118.004059 
	C264.002686,117.996193 264.018982,117.980904 264.018982,117.980904 
	C267.680878,117.991119 271.348572,118.132431 275.002930,117.971283 
	C278.086853,117.835289 279.081146,119.148109 279.036865,122.112427 
	C278.917633,130.100388 279.005157,138.091415 279.001495,146.765594 
	C278.992371,147.449982 278.887787,147.908310 278.887787,147.908310 
M126.500031,147.000641 
	C119.090645,147.000641 111.681267,147.000641 104.457458,147.000641 
	C104.457458,152.525055 104.457458,157.089279 104.457458,162.000504 
	C106.897156,162.000504 108.878914,162.000519 110.860672,162.000519 
	C149.169739,162.000519 187.478821,162.006271 225.787888,161.996613 
	C235.806458,161.994095 234.715073,162.871292 235.115891,152.921753 
	C235.314636,147.987808 233.660233,146.866959 228.935165,146.894684 
	C195.124420,147.093048 161.311951,147.000656 126.500031,147.000641 
z"/>
<path fill="#713F1E" opacity="1.000000" stroke="none" 
	d="
M104.468658,351.000000 
	C104.021088,327.331055 104.042183,303.662079 104.562477,279.511841 
	C105.725159,279.021332 106.388611,279.006439 107.052109,279.003723 
	C117.261917,278.961853 117.343864,278.957336 117.953201,289.154999 
	C118.115387,291.869293 119.061134,293.002747 121.813057,293.035706 
	C125.247940,293.076843 129.866333,292.214203 131.772919,294.040009 
	C133.629517,295.817932 132.912170,300.494202 132.945694,303.901672 
	C132.974792,306.859924 134.040787,308.150391 137.054321,308.025330 
	C140.366272,307.887909 143.688538,307.998383 147.004852,308.469421 
	C147.002274,322.958710 147.001129,336.979340 147.000000,351.000000 
	C132.979111,351.000000 118.958214,351.000000 104.468658,351.000000 
z"/>
<path fill="#000001" opacity="1.000000" stroke="none" 
	d="
M147.466125,351.000000 
	C147.001129,336.979340 147.002274,322.958710 147.472992,308.470795 
	C171.951859,307.992493 195.961151,307.981415 219.982819,307.982788 
	C219.995209,307.995270 220.019775,308.020447 220.019775,308.020447 
	C220.019775,312.489502 220.019775,316.958588 220.019775,322.000732 
	C213.918121,322.000732 208.150803,322.000854 202.383499,322.000671 
	C191.390381,322.000366 180.397232,321.982391 169.404160,322.006195 
	C163.191513,322.019653 162.019501,323.237000 162.004990,329.575500 
	C161.989349,336.404541 162.000778,343.233612 162.000183,350.531342 
	C157.310745,351.000000 152.621490,351.000000 147.466125,351.000000 
z"/>
<path fill="#000000" opacity="1.000000" stroke="none" 
	d="
M234.968842,89.028709 
	C239.426987,89.028709 243.885147,89.028709 248.820953,89.028709 
	C248.820953,93.952080 248.820953,98.670128 248.820953,103.999092 
	C252.693649,103.999092 256.126923,104.177528 259.533051,103.949944 
	C263.087891,103.712433 264.294006,105.192947 264.039246,108.602318 
	C263.829773,111.405663 263.995697,114.237068 264.007111,117.518471 
	C264.018982,117.980904 264.002686,117.996193 263.527039,117.995399 
	C224.359985,117.988609 185.668564,117.982605 146.977158,117.976601 
	C146.977158,117.976601 147.008301,118.008377 147.007996,117.555054 
	C147.007706,112.855751 147.007706,108.609764 147.007706,103.999672 
	C149.867081,103.999672 151.846100,103.999687 153.825104,103.999664 
	C178.970963,103.999443 204.117310,103.922173 229.262238,104.074234 
	C233.490295,104.099808 235.495377,103.008018 235.061432,98.467316 
	C234.761856,95.332588 235.016266,92.144928 235.007904,88.990967 
	C234.992691,89.001015 234.968842,89.028709 234.968842,89.028709 
z"/>
<path fill="#000001" opacity="1.000000" stroke="none" 
	d="
M117.987122,73.986015 
	C117.987122,69.519142 117.987122,65.052269 117.987122,60.243938 
	C119.911354,60.152962 121.517570,60.011486 123.123856,60.010780 
	C153.421005,59.997520 183.718918,60.108486 214.014542,59.892136 
	C218.913376,59.857155 220.649612,61.346909 220.048752,66.108551 
	C219.759262,68.402672 219.997498,70.763367 219.999176,73.548569 
	C220.001587,74.003212 220.019989,73.976219 219.550293,73.992859 
	C190.410461,74.050629 161.740326,74.091766 132.600220,74.090714 
	C127.425392,74.036613 122.720512,74.024689 118.008888,74.005692 
	C118.002136,73.998634 117.987122,73.986015 117.987122,73.986015 
z"/>
<path fill="#000001" opacity="1.000000" stroke="none" 
	d="
M293.001678,279.007843 
	C293.001678,283.465515 293.001678,287.923187 293.001678,292.817566 
	C273.691345,292.817566 254.685104,292.817566 235.184937,292.817566 
	C235.184937,297.958252 235.184937,302.677155 235.184937,307.997559 
	C230.122391,307.997559 225.536880,307.997559 220.485565,308.009003 
	C220.019775,308.020447 219.995209,307.995270 219.999298,307.518005 
	C220.004379,305.875732 220.007584,304.710693 220.006027,303.545685 
	C219.992355,293.286102 219.992096,293.286102 209.913849,292.468262 
	C209.556778,287.771545 209.278809,283.469025 209.464203,279.092102 
	C232.960464,278.959503 255.993332,278.901245 279.483459,278.913513 
	C284.287994,278.985779 288.635254,278.987488 292.987305,278.994202 
	C292.992096,278.999207 293.001678,279.007843 293.001678,279.007843 
z"/>
<path fill="#95AEE7" opacity="1.000000" stroke="none" 
	d="
M278.923462,148.380127 
	C278.887787,147.908310 278.992371,147.449982 279.074951,147.229767 
	C292.998718,146.962433 292.998749,146.962433 292.998718,160.709137 
	C292.998657,183.507782 292.895813,206.307297 293.087158,229.104340 
	C293.124359,233.535858 292.063141,235.761627 287.306244,235.021484 
	C286.331390,234.869797 285.297668,234.887711 284.316833,235.019302 
	C280.202789,235.571213 278.890747,233.900009 278.918121,229.727829 
	C279.086517,204.101242 279.005859,178.473022 279.004822,152.845337 
	C279.004791,151.514206 278.975067,150.183060 278.923462,148.380127 
z"/>
<path fill="#010102" opacity="1.000000" stroke="none" 
	d="
M219.989151,74.013885 
	C224.781998,74.024551 229.587280,74.024551 234.993362,74.024551 
	C234.993362,78.894875 234.993362,83.492584 234.981110,88.559502 
	C234.968842,89.028709 234.992691,89.001015 234.539368,88.998520 
	C229.544403,88.996033 225.002731,88.996033 220.019989,88.996033 
	C220.019989,83.468895 220.019989,78.722557 220.019989,73.976219 
	C220.019989,73.976219 220.001587,74.003212 219.989151,74.013885 
z"/>
<path fill="#010102" opacity="1.000000" stroke="none" 
	d="
M292.998779,263.993713 
	C296.825378,263.993561 300.682526,263.702820 304.447052,264.165680 
	C305.749603,264.325836 307.727264,266.265778 307.857971,267.549377 
	C309.022736,278.988556 308.921143,278.999054 297.420349,279.003510 
	C296.257477,279.003967 295.094635,279.001038 293.466736,279.003784 
	C293.001678,279.007843 292.992096,278.999207 292.995789,278.528900 
	C292.993774,273.376038 292.988068,268.693512 292.982361,264.010956 
	C292.982330,264.010956 292.992950,263.998993 292.998779,263.993713 
z"/>
<path fill="#010101" opacity="1.000000" stroke="none" 
	d="
M103.988777,88.991089 
	C103.702652,85.132179 103.122482,81.266373 103.322472,77.441360 
	C103.385315,76.239357 105.432350,74.347115 106.765106,74.161263 
	C110.137978,73.690918 113.620865,74.009552 117.523399,73.999084 
	C117.987122,73.986015 118.002136,73.998634 117.998856,74.470825 
	C117.989693,79.622391 117.983795,84.301765 117.989105,88.990433 
	C118.000305,88.999725 117.980705,88.977486 117.517746,88.986237 
	C112.707458,89.001961 108.360115,89.008942 104.012779,89.015915 
	C104.012779,89.015915 103.996170,88.999947 103.988777,88.991089 
z"/>
<path fill="#713F1E" opacity="1.000000" stroke="none" 
	d="
M219.937424,248.853180 
	C215.636322,248.912506 211.335205,248.971832 206.099899,249.034332 
	C182.872116,249.024734 160.578506,249.021179 138.284958,248.985931 
	C135.869888,248.982117 133.067780,249.589813 132.983658,245.613220 
	C132.914459,242.343231 133.694077,237.670853 131.930969,236.177002 
	C129.801865,234.373047 125.390640,235.110626 121.961288,235.042145 
	C119.303566,234.989059 118.035751,234.125198 117.953789,231.285400 
	C117.850639,227.711456 118.621773,222.500534 116.685173,220.996307 
	C114.224785,219.085220 109.426666,220.182739 105.636322,219.986282 
	C105.138008,219.960464 104.638710,219.953751 104.139862,219.938187 
	C104.139862,215.620987 104.139862,211.303772 104.139862,206.167099 
	C98.987251,206.167099 94.298286,206.167099 89.317612,206.167099 
	C89.317612,200.785995 89.317612,196.229050 89.317612,190.991699 
	C92.716064,190.991699 95.843445,190.803925 98.938835,191.038452 
	C102.957329,191.342926 104.316467,189.576904 104.039803,185.755768 
	C103.825691,182.798691 103.997055,179.813705 103.997055,176.422089 
	C113.645775,176.422089 122.869011,176.422089 132.998016,176.422089 
	C132.998016,182.950806 132.997452,189.531921 132.998138,196.113037 
	C132.999176,205.992493 132.999557,205.992706 143.089050,205.992294 
	C147.751633,205.992096 152.420883,205.837463 157.074692,206.039276 
	C160.731430,206.197845 162.159302,204.828781 162.054047,201.117859 
	C161.860565,194.296005 162.129486,187.461258 161.946060,180.638855 
	C161.857773,177.355072 162.638168,175.858459 166.329544,175.922318 
	C178.149033,176.126770 189.975479,176.102097 201.796310,175.944992 
	C205.097839,175.901108 206.140137,177.029266 206.060486,180.260193 
	C205.879974,187.582565 206.089859,194.913879 205.971817,202.238846 
	C205.926926,205.023743 206.924927,206.089905 209.741333,206.030487 
	C216.066269,205.897034 222.400192,206.132324 228.722382,205.945160 
	C233.124039,205.814865 235.177170,207.434448 235.049637,212.032394 
	C234.846558,219.353912 234.957291,226.684113 234.438889,234.493469 
	C230.657181,234.986496 227.368073,235.099045 224.087753,234.976303 
	C221.171631,234.867188 219.861862,236.000351 219.973038,238.999252 
	C220.094635,242.278946 219.960251,245.568130 219.937424,248.853180 
M205.998672,228.438660 
	C205.824402,218.733276 207.310349,220.127090 197.505493,220.021530 
	C190.443359,219.945480 183.379761,220.006729 176.121155,220.006729 
	C176.121155,225.495270 176.121155,230.063950 176.121155,234.998886 
	C184.407501,234.998886 192.537094,234.723419 200.635651,235.105469 
	C205.256821,235.323471 206.623978,233.556656 205.998672,228.438660 
z"/>
<path fill="#4F2D14" opacity="1.000000" stroke="none" 
	d="
M104.091461,220.409729 
	C104.638710,219.953751 105.138008,219.960464 105.636322,219.986282 
	C109.426666,220.182739 114.224785,219.085220 116.685173,220.996307 
	C118.621773,222.500534 117.850639,227.711456 117.953789,231.285400 
	C118.035751,234.125198 119.303566,234.989059 121.961288,235.042145 
	C125.390640,235.110626 129.801865,234.373047 131.930969,236.177002 
	C133.694077,237.670853 132.914459,242.343231 132.983658,245.613220 
	C133.067780,249.589813 135.869888,248.982117 138.284958,248.985931 
	C160.578506,249.021179 182.872116,249.024734 205.644058,249.061249 
	C206.092987,253.780197 206.063553,258.475403 206.045837,263.608826 
	C206.057541,264.047058 206.127319,264.035278 205.652588,264.023041 
	C200.480377,264.038269 195.782913,264.065704 190.609680,264.063660 
	C184.147278,264.022736 178.159698,263.938171 172.174225,264.015656 
	C160.808411,264.162781 162.173706,262.083923 161.951096,274.474457 
	C161.887695,278.003876 163.236374,279.128784 166.637787,279.050323 
	C174.782089,278.862396 182.932495,278.940247 191.530579,278.935120 
	C193.130463,278.972076 194.280197,278.989288 195.429993,278.996704 
	C205.529251,279.061859 205.624832,279.058289 205.943451,289.059784 
	C206.037567,292.013580 206.917786,293.424530 209.992935,292.862396 
	C219.992096,293.286102 219.992355,293.286102 220.006027,303.545685 
	C220.007584,304.710693 220.004379,305.875732 219.986908,307.505554 
	C195.961151,307.981415 171.951859,307.992493 147.474426,308.002197 
	C143.688538,307.998383 140.366272,307.887909 137.054321,308.025330 
	C134.040787,308.150391 132.974792,306.859924 132.945694,303.901672 
	C132.912170,300.494202 133.629517,295.817932 131.772919,294.040009 
	C129.866333,292.214203 125.247940,293.076843 121.813057,293.035706 
	C119.061134,293.002747 118.115387,291.869293 117.953201,289.154999 
	C117.343864,278.957336 117.261917,278.961853 107.052109,279.003723 
	C106.388611,279.006439 105.725159,279.021332 104.609695,279.049683 
	C104.119492,259.672974 104.081276,240.277115 104.091461,220.409729 
z"/>
<path fill="#515151" opacity="1.000000" stroke="none" 
	d="
M219.550293,73.992859 
	C220.019989,78.722557 220.019989,83.468895 220.019989,88.996033 
	C225.002731,88.996033 229.544403,88.996033 234.554581,88.988480 
	C235.016266,92.144928 234.761856,95.332588 235.061432,98.467316 
	C235.495377,103.008018 233.490295,104.099808 229.262238,104.074234 
	C204.117310,103.922173 178.970963,103.999443 153.825104,103.999664 
	C151.846100,103.999687 149.867081,103.999672 147.007706,103.999672 
	C147.007706,108.609764 147.007706,112.855751 147.023849,117.570671 
	C146.376114,118.027863 145.710480,117.979179 145.048645,118.010498 
	C141.275314,118.189018 136.453003,117.077339 134.063538,118.993446 
	C132.164169,120.516548 133.110504,125.747040 133.040344,129.336395 
	C132.994171,131.700272 132.479309,133.059402 129.724304,133.024994 
	C121.443207,132.921494 113.159988,132.987701 104.046906,132.987701 
	C104.046906,123.425873 104.046906,114.212570 104.548874,104.516724 
	C108.028572,104.020493 111.011505,103.891220 113.982552,104.025337 
	C117.009583,104.161972 118.136269,102.836555 118.025200,99.894913 
	C117.887970,96.260391 117.984932,92.617027 117.980705,88.977486 
	C117.980705,88.977486 118.000305,88.999725 118.457901,88.995682 
	C121.892593,88.994270 124.883087,88.819977 127.843430,89.044014 
	C131.605606,89.328735 133.405624,88.133095 133.061371,84.050285 
	C132.784653,80.768074 133.047028,77.440399 133.070190,74.132896 
	C161.740326,74.091766 190.410461,74.050629 219.550293,73.992859 
z"/>
<path fill="#713F1E" opacity="1.000000" stroke="none" 
	d="
M127.000031,147.000641 
	C161.311951,147.000656 195.124420,147.093048 228.935165,146.894684 
	C233.660233,146.866959 235.314636,147.987808 235.115891,152.921753 
	C234.715073,162.871292 235.806458,161.994095 225.787888,161.996613 
	C187.478821,162.006271 149.169739,162.000519 110.860672,162.000519 
	C108.878914,162.000519 106.897156,162.000504 104.457458,162.000504 
	C104.457458,157.089279 104.457458,152.525055 104.457458,147.000641 
	C111.681267,147.000641 119.090645,147.000641 127.000031,147.000641 
z"/>
<path fill="#353535" opacity="1.000000" stroke="none" 
	d="
M146.982544,118.445137 
	C185.668564,117.982605 224.359985,117.988609 263.519104,118.003265 
	C263.989166,121.675858 263.862213,125.345863 264.033661,129.001877 
	C264.177734,132.074005 262.890259,133.039856 259.917755,133.034729 
	C223.611435,132.972122 187.304932,132.971436 150.998627,133.039764 
	C147.929260,133.045547 146.835526,131.872543 146.969650,128.904633 
	C147.119873,125.580826 146.993774,122.244530 146.982544,118.445137 
z"/>
<path fill="#C6C6C6" opacity="1.000000" stroke="none" 
	d="
M279.026184,278.842987 
	C255.993332,278.901245 232.960464,278.959503 209.027283,279.017700 
	C207.416458,278.093292 206.138351,277.195312 206.094055,276.240082 
	C205.905823,272.181061 206.083374,268.105072 206.127319,264.035278 
	C206.127319,264.035278 206.057541,264.047058 206.065750,264.081665 
	C230.078415,264.080597 254.082855,264.044922 278.545288,264.541962 
	C279.010895,269.664124 279.018555,274.253540 279.026184,278.842987 
z"/>
<path fill="#353535" opacity="1.000000" stroke="none" 
	d="
M117.517746,88.986237 
	C117.984932,92.617027 117.887970,96.260391 118.025200,99.894913 
	C118.136269,102.836555 117.009583,104.161972 113.982552,104.025337 
	C111.011505,103.891220 108.028572,104.020493 104.597504,104.055161 
	C104.098198,99.366226 104.052246,94.656311 104.009537,89.481155 
	C108.360115,89.008942 112.707458,89.001961 117.517746,88.986237 
z"/>
<path fill="#502C16" opacity="1.000000" stroke="none" 
	d="
M220.407532,248.898773 
	C219.960251,245.568130 220.094635,242.278946 219.973038,238.999252 
	C219.861862,236.000351 221.171631,234.867188 224.087753,234.976303 
	C227.368073,235.099045 230.657181,234.986496 234.396576,234.956390 
	C235.548752,249.191849 235.548752,249.191849 220.407532,248.898773 
z"/>
<path fill="#E25A26" opacity="1.000000" stroke="none" 
	d="
M279.483459,278.913513 
	C279.018555,274.253540 279.010895,269.664124 279.009094,264.620178 
	C283.361603,264.111267 287.708282,264.056824 292.518646,264.006653 
	C292.988068,268.693512 292.993774,273.376038 292.991028,278.523865 
	C288.635254,278.987488 284.287994,278.985779 279.483459,278.913513 
z"/>
<path fill="#353535" opacity="1.000000" stroke="none" 
	d="
M132.600220,74.090714 
	C133.047028,77.440399 132.784653,80.768074 133.061371,84.050285 
	C133.405624,88.133095 131.605606,89.328735 127.843430,89.044014 
	C124.883087,88.819977 121.892593,88.994270 118.446701,88.986382 
	C117.983795,84.301765 117.989693,79.622391 118.005615,74.477890 
	C122.720512,74.024689 127.425392,74.036613 132.600220,74.090714 
z"/>
<path fill="#010101" opacity="1.000000" stroke="none" 
	d="
M205.652588,264.023041 
	C206.083374,268.105072 205.905823,272.181061 206.094055,276.240082 
	C206.138351,277.195312 207.416458,278.093292 208.563904,279.092041 
	C209.278809,283.469025 209.556778,287.771545 209.913849,292.468262 
	C206.917786,293.424530 206.037567,292.013580 205.943451,289.059784 
	C205.624832,279.058289 205.529251,279.061859 195.429993,278.996704 
	C194.280197,278.989288 193.130463,278.972076 191.506775,278.478333 
	C191.050385,273.362579 191.067917,268.727875 191.085449,264.093201 
	C195.782913,264.065704 200.480377,264.038269 205.652588,264.023041 
z"/>
<path fill="#010001" opacity="1.000000" stroke="none" 
	d="
M205.998627,228.911346 
	C206.623978,233.556656 205.256821,235.323471 200.635651,235.105469 
	C192.537094,234.723419 184.407501,234.998886 176.121155,234.998886 
	C176.121155,230.063950 176.121155,225.495270 176.121155,220.006729 
	C183.379761,220.006729 190.443359,219.945480 197.505493,220.021530 
	C207.310349,220.127090 205.824402,218.733276 205.998627,228.911346 
z"/>
<path fill="#281B09" opacity="1.000000" stroke="none" 
	d="
M190.609680,264.063660 
	C191.067917,268.727875 191.050385,273.362579 191.056656,278.454041 
	C182.932495,278.940247 174.782089,278.862396 166.637787,279.050323 
	C163.236374,279.128784 161.887695,278.003876 161.951096,274.474457 
	C162.173706,262.083923 160.808411,264.162781 172.174225,264.015656 
	C178.159698,263.938171 184.147278,264.022736 190.609680,264.063660 
z"/>
</svg>